# Blender v2.79 (sub 0) OBJ File: 'scene.blend'
# www.blender.org
o acorn_Sphere.003 0 1
v -2.533346 -0.331514 0.349543
v -2.489264 -0.373585 0.394389
v -2.482569 -0.456357 0.501848
v -2.543618 -0.516768 0.596118
v -2.600795 -0.283827 0.344450
v -2.535711 -0.293989 0.380233
v -2.492244 -0.326290 0.433069
v -2.478159 -0.369328 0.487134
v -2.485197 -0.414670 0.535941
v -2.506117 -0.460628 0.580271
v -2.544698 -0.499632 0.610132
v -2.611455 -0.267219 0.360342
v -2.556129 -0.262177 0.410674
v -2.517979 -0.286195 0.471436
v -2.504083 -0.328937 0.525784
v -2.507879 -0.379330 0.569758
v -2.523345 -0.433785 0.605957
v -2.554022 -0.485105 0.624033
v -2.629917 -0.256122 0.373685
v -2.591492 -0.240921 0.436232
v -2.562549 -0.259404 0.503649
v -2.548982 -0.301949 0.558233
v -2.547164 -0.355717 0.598150
v -2.553184 -0.415850 0.627523
v -2.570171 -0.475398 0.635704
v -2.653370 -0.252225 0.382447
v -2.636416 -0.233456 0.453016
v -2.619170 -0.249996 0.524803
v -2.606019 -0.292473 0.579543
v -2.597070 -0.347425 0.616795
v -2.591090 -0.409551 0.641685
v -2.590686 -0.471990 0.643369
v -2.678244 -0.256122 0.385295
v -2.684062 -0.240921 0.458471
v -2.679221 -0.259404 0.531678
v -2.666512 -0.301949 0.586469
v -2.649999 -0.355717 0.622855
v -2.631293 -0.415850 0.646288
v -2.612443 -0.475398 0.645860
v -2.700752 -0.267219 0.381795
v -2.727176 -0.262177 0.451767
v -2.733560 -0.286195 0.523228
v -2.721251 -0.328937 0.577956
v -2.697894 -0.379330 0.615407
v -2.667672 -0.433785 0.640630
v -2.632131 -0.485105 0.642798
v -2.717467 -0.283827 0.372479
v -2.759194 -0.293989 0.433923
v -2.773915 -0.326290 0.500738
v -2.761904 -0.369328 0.555301
v -2.733463 -0.414670 0.595585
v -2.694688 -0.460628 0.625574
v -2.646753 -0.499632 0.634650
v -2.725845 -0.303418 0.358767
v -2.775242 -0.331514 0.407657
v -2.794142 -0.373585 0.467633
v -2.782279 -0.416971 0.521952
v -2.751291 -0.456357 0.566406
v -2.708230 -0.492291 0.603411
v -2.654081 -0.516768 0.622655
v -2.724611 -0.323008 0.342745
v -2.772877 -0.369039 0.376967
v -2.791161 -0.420880 0.428953
v -2.779276 -0.464615 0.482987
v -2.748663 -0.498043 0.532312
v -2.706234 -0.523954 0.577515
v -2.653001 -0.533904 0.608641
v -2.713951 -0.339616 0.326853
v -2.752459 -0.400852 0.346526
v -2.765427 -0.460975 0.390586
v -2.753352 -0.505005 0.444338
v -2.725981 -0.533383 0.498496
v -2.689005 -0.550797 0.551830
v -2.643677 -0.548431 0.594740
v -2.695489 -0.350713 0.313510
v -2.717096 -0.422108 0.320967
v -2.720856 -0.487766 0.358373
v -2.708454 -0.531993 0.411888
v -2.686696 -0.556996 0.470103
v -2.659167 -0.568733 0.530264
v -2.627528 -0.558138 0.583068
v -2.672036 -0.354610 0.304747
v -2.672172 -0.429572 0.304183
v -2.664235 -0.497174 0.337219
v -2.651416 -0.541470 0.390578
v -2.636791 -0.565288 0.451458
v -2.621260 -0.575031 0.516102
v -2.607013 -0.561546 0.575404
v -2.647162 -0.350713 0.301899
v -2.624526 -0.422108 0.298728
v -2.604184 -0.487766 0.330344
v -2.590923 -0.531993 0.383652
v -2.583861 -0.556996 0.445398
v -2.581058 -0.568733 0.511499
v -2.585256 -0.558138 0.572913
v -2.624654 -0.339616 0.305400
v -2.581412 -0.400852 0.305433
v -2.549845 -0.460975 0.338794
v -2.536184 -0.505005 0.392165
v -2.535966 -0.533383 0.452846
v -2.544679 -0.550797 0.517156
v -2.565568 -0.548431 0.575975
v -2.607939 -0.323008 0.314715
v -2.549394 -0.369039 0.323277
v -2.509490 -0.420880 0.361284
v -2.495532 -0.464615 0.414820
v -2.500397 -0.498043 0.472669
v -2.517662 -0.523954 0.532213
v -2.550947 -0.533904 0.584123
v -2.664868 -0.296183 0.334584
v -2.599561 -0.303418 0.328428
v -2.475157 -0.416971 0.448169
v -2.504121 -0.492291 0.554376
v -2.596323 -0.525210 0.619903
v -2.489264 -0.373585 0.394389
v -2.492244 -0.326290 0.433069
v -2.517979 -0.286195 0.471436
v -2.562549 -0.259404 0.503649
v -2.619170 -0.249996 0.524803
v -2.679221 -0.259404 0.531678
v -2.733560 -0.286195 0.523228
v -2.773915 -0.326290 0.500738
v -2.794142 -0.373585 0.467633
v -2.791161 -0.420880 0.428953
v -2.765427 -0.460975 0.390586
v -2.720856 -0.487766 0.358373
v -2.664235 -0.497174 0.337219
v -2.604184 -0.487766 0.330344
v -2.549845 -0.460975 0.338794
v -2.509490 -0.420880 0.361284
v -2.489264 -0.373585 0.394389
v -2.492244 -0.326290 0.433069
v -2.517979 -0.286195 0.471436
v -2.562549 -0.259404 0.503649
v -2.619170 -0.249996 0.524803
v -2.679221 -0.259404 0.531678
v -2.733560 -0.286195 0.523228
v -2.773915 -0.326290 0.500738
v -2.794142 -0.373585 0.467633
v -2.791161 -0.420880 0.428953
v -2.765427 -0.460975 0.390586
v -2.720856 -0.487766 0.358373
v -2.664235 -0.497174 0.337219
v -2.604184 -0.487766 0.330344
v -2.549845 -0.460975 0.338794
v -2.509490 -0.420880 0.361284
vn 0.8696 -0.3891 0.3038
vn 0.9492 0.0362 0.3126
vn 0.8549 -0.1554 0.4949
vn 0.9884 -0.0851 -0.1253
vn 0.8887 0.4306 -0.1571
vn 0.9696 0.2137 0.1190
vn 0.6542 0.3779 -0.6551
vn 0.2427 0.6852 -0.6867
vn 0.6392 0.6160 -0.4604
vn 0.6188 -0.5434 0.5673
vn 0.6099 -0.4018 0.6830
vn 0.9666 -0.2412 0.0857
vn 0.9073 0.1364 -0.3977
vn 0.2509 0.5557 -0.7926
vn -0.1841 0.6153 -0.7665
vn 0.1841 -0.6153 0.7665
vn 0.7277 0.0427 0.6845
vn 0.5329 -0.2818 0.7979
vn 0.8070 0.4669 0.3614
vn 0.7982 0.2715 0.5378
vn 0.5097 0.8178 -0.2673
vn 0.7287 0.6800 0.0815
vn 0.1723 0.7949 -0.5817
vn 0.2853 0.9526 -0.1051
vn 0.4515 0.8466 0.2818
vn 0.0503 0.8683 -0.4935
vn 0.3995 -0.2016 0.8943
vn 0.5075 0.1750 0.8436
vn 0.5255 0.6362 0.5649
vn 0.5366 0.4287 0.7268
vn 0.2300 -0.1735 0.9576
vn 0.2278 0.2215 0.9481
vn 0.1678 0.6956 0.6985
vn -0.1046 0.8940 -0.4356
vn 0.0003 1.0000 0.0013
vn 0.2044 0.4839 0.8509
vn 0.0993 0.9051 0.4134
vn -0.2690 0.8683 -0.4168
vn -0.3020 0.9526 0.0360
vn 0.0503 -0.2016 0.9781
vn -0.1479 0.4287 0.8912
vn -0.2742 0.8466 0.4561
vn -0.0689 0.1750 0.9821
vn -0.2115 0.6362 0.7419
vn -0.3374 0.0427 0.9404
vn -0.1123 -0.2818 0.9528
vn -0.5548 0.4670 0.6886
vn -0.4668 0.2715 0.8416
vn -0.6121 0.6800 0.4036
vn -0.4177 0.7949 -0.4399
vn -0.5755 0.8178 -0.0066
vn -0.5282 0.6852 -0.5015
vn -0.2330 -0.4018 0.8856
vn -0.7035 0.0362 0.7097
vn -0.5368 -0.1554 0.8292
vn -0.8632 0.4306 0.2637
vn -0.8097 0.2137 0.5465
vn -0.7786 0.6160 -0.1198
vn -0.6367 -0.3891 0.6657
vn -0.9375 -0.0851 0.3374
vn -0.8804 0.3779 -0.2864
vn -0.2936 -0.5434 0.7865
vn -0.8222 -0.2412 0.5155
vn -0.9890 0.1364 0.0578
vn -0.5835 0.5557 -0.5921
vn -0.6220 -0.6228 0.4746
vn -0.2846 -0.6849 0.6707
vn -0.9187 -0.3839 0.0930
vn -0.8047 -0.5188 0.2885
vn -0.8654 0.1398 -0.4811
vn -0.9704 -0.1577 -0.1827
vn -0.5754 0.4263 -0.6980
vn -0.6537 -0.7540 0.0634
vn -0.8104 -0.4071 -0.4214
vn -0.5050 0.3165 -0.8030
vn -0.2076 -0.8049 0.5559
vn -0.4948 -0.8209 0.2850
vn -0.7561 -0.6371 -0.1494
vn -0.7359 -0.0620 -0.6742
vn -0.0743 -0.8850 0.4595
vn -0.2746 -0.9533 0.1258
vn -0.5331 -0.5737 -0.6218
vn -0.4745 -0.8064 -0.3529
vn -0.5115 -0.1969 -0.8364
vn -0.3922 -0.9112 -0.1256
vn -0.3829 0.2432 -0.8911
vn -0.1169 -0.8658 -0.4865
vn -0.2280 0.2175 -0.9490
vn -0.2265 -0.2442 -0.9429
vn 0.0051 -0.9998 0.0213
vn 0.0952 -0.9132 0.3962
vn -0.0600 -0.9664 -0.2497
vn -0.1810 -0.6323 -0.7533
vn 0.2749 -0.8850 0.3756
vn 0.2923 -0.9112 -0.2901
vn 0.1925 -0.5737 -0.7961
vn -0.0636 0.2432 -0.9679
vn 0.3018 -0.9533 -0.0126
vn 0.2625 -0.8064 -0.5299
vn 0.0757 -0.1969 -0.9775
vn 0.5305 -0.4071 -0.7435
vn 0.0851 0.3165 -0.9447
vn 0.4375 -0.8049 0.4009
vn 0.5703 -0.8209 0.0291
vn 0.6057 -0.6371 -0.4765
vn 0.3493 -0.0620 -0.9349
vn 0.6112 -0.7540 -0.2405
vn 0.5583 -0.6849 0.4682
vn 0.8480 -0.5188 -0.1086
vn 0.7697 -0.6228 0.1402
vn 0.8607 -0.3839 -0.3345
vn 0.5524 0.1398 -0.8217
vn 0.7815 -0.1577 -0.6036
vn 0.1955 0.4263 -0.8832
s 1
f 113//1 9//2 10//3
f 112//4 7//5 8//6
f 1//7 5//8 6//9
f 4//10 10//3 11//11
f 112//4 9//2 3//12
f 1//7 7//5 2//13
f 111//14 110//15 5//8
f 114//16 4//10 11//11
f 11//11 17//17 18//18
f 9//2 15//19 16//20
f 7//5 13//21 14//22
f 5//8 110//15 12//23
f 114//16 11//11 18//18
f 9//2 17//17 10//3
f 7//5 15//19 8//6
f 5//8 13//21 6//9
f 14//22 20//24 21//25
f 12//23 110//15 19//26
f 114//16 18//18 25//27
f 16//20 24//28 17//17
f 15//19 21//25 22//29
f 12//23 20//24 13//21
f 17//17 25//27 18//18
f 16//20 22//29 23//30
f 114//16 25//27 32//31
f 23//30 31//32 24//28
f 21//25 29//33 22//29
f 20//24 26//34 27//35
f 25//27 31//32 32//31
f 23//30 29//33 30//36
f 21//25 27//35 28//37
f 19//26 110//15 26//34
f 27//35 33//38 34//39
f 31//32 39//40 32//31
f 29//33 37//41 30//36
f 27//35 35//42 28//37
f 26//34 110//15 33//38
f 114//16 32//31 39//40
f 30//36 38//43 31//32
f 28//37 36//44 29//33
f 39//40 45//45 46//46
f 37//41 43//47 44//48
f 34//39 42//49 35//42
f 33//38 110//15 40//50
f 114//16 39//40 46//46
f 38//43 44//48 45//45
f 36//44 42//49 43//47
f 33//38 41//51 34//39
f 40//50 110//15 47//52
f 114//16 46//46 53//53
f 45//45 51//54 52//55
f 43//47 49//56 50//57
f 41//51 47//52 48//58
f 46//46 52//55 53//53
f 44//48 50//57 51//54
f 42//49 48//58 49//56
f 51//54 59//59 52//55
f 49//56 57//60 50//57
f 47//52 55//61 48//58
f 53//53 59//59 60//62
f 50//57 58//63 51//54
f 48//58 56//64 49//56
f 47//52 110//15 54//65
f 114//16 53//53 60//62
f 60//62 66//66 67//67
f 58//63 64//68 65//69
f 56//64 62//70 63//71
f 54//65 110//15 61//72
f 114//16 60//62 67//67
f 59//59 65//69 66//66
f 56//64 64//68 57//60
f 55//61 61//72 62//70
f 64//68 72//73 65//69
f 62//70 70//74 63//71
f 61//72 110//15 68//75
f 114//16 67//67 74//76
f 66//66 72//73 73//77
f 64//68 70//74 71//78
f 61//72 69//79 62//70
f 66//66 74//76 67//67
f 114//16 74//76 81//80
f 72//73 80//81 73//77
f 71//78 77//82 78//83
f 68//75 76//84 69//79
f 73//77 81//80 74//76
f 71//78 79//85 72//73
f 69//79 77//82 70//74
f 68//75 110//15 75//86
f 77//82 85//87 78//83
f 76//84 82//88 83//89
f 81//80 87//90 88//91
f 78//83 86//92 79//85
f 76//84 84//93 77//82
f 75//86 110//15 82//88
f 114//16 81//80 88//91
f 80//81 86//92 87//90
f 87//90 95//94 88//91
f 85//87 93//95 86//92
f 83//89 91//96 84//93
f 82//88 110//15 89//97
f 114//16 88//91 95//94
f 87//90 93//95 94//98
f 84//93 92//99 85//87
f 82//88 90//100 83//89
f 90//100 98//101 91//96
f 89//97 110//15 96//102
f 114//16 95//94 102//103
f 93//95 101//104 94//98
f 92//99 98//101 99//105
f 90//100 96//102 97//106
f 94//98 102//103 95//94
f 92//99 100//107 93//95
f 114//16 102//103 109//108
f 101//104 107//109 108//110
f 98//101 106//111 99//105
f 96//102 104//112 97//106
f 101//104 109//108 102//103
f 100//107 106//111 107//109
f 98//101 104//112 105//113
f 96//102 110//15 103//114
f 103//114 1//7 104//112
f 108//110 4//10 109//108
f 106//111 3//12 107//109
f 104//112 2//13 105//113
f 103//114 110//15 111//14
f 114//16 109//108 4//10
f 107//109 113//1 108//110
f 105//113 112//4 106//111
f 113//1 3//12 9//2
f 112//4 2//13 7//5
f 1//7 111//14 5//8
f 4//10 113//1 10//3
f 112//4 8//6 9//2
f 1//7 6//9 7//5
f 11//11 10//3 17//17
f 9//2 8//6 15//19
f 7//5 6//9 13//21
f 9//2 16//20 17//17
f 7//5 14//22 15//19
f 5//8 12//23 13//21
f 14//22 13//21 20//24
f 16//20 23//30 24//28
f 15//19 14//22 21//25
f 12//23 19//26 20//24
f 17//17 24//28 25//27
f 16//20 15//19 22//29
f 23//30 30//36 31//32
f 21//25 28//37 29//33
f 20//24 19//26 26//34
f 25//27 24//28 31//32
f 23//30 22//29 29//33
f 21//25 20//24 27//35
f 27//35 26//34 33//38
f 31//32 38//43 39//40
f 29//33 36//44 37//41
f 27//35 34//39 35//42
f 30//36 37//41 38//43
f 28//37 35//42 36//44
f 39//40 38//43 45//45
f 37//41 36//44 43//47
f 34//39 41//51 42//49
f 38//43 37//41 44//48
f 36//44 35//42 42//49
f 33//38 40//50 41//51
f 45//45 44//48 51//54
f 43//47 42//49 49//56
f 41//51 40//50 47//52
f 46//46 45//45 52//55
f 44//48 43//47 50//57
f 42//49 41//51 48//58
f 51//54 58//63 59//59
f 49//56 56//64 57//60
f 47//52 54//65 55//61
f 53//53 52//55 59//59
f 50//57 57//60 58//63
f 48//58 55//61 56//64
f 60//62 59//59 66//66
f 58//63 57//60 64//68
f 56//64 55//61 62//70
f 59//59 58//63 65//69
f 56//64 63//71 64//68
f 55//61 54//65 61//72
f 64//68 71//78 72//73
f 62//70 69//79 70//74
f 66//66 65//69 72//73
f 64//68 63//71 70//74
f 61//72 68//75 69//79
f 66//66 73//77 74//76
f 72//73 79//85 80//81
f 71//78 70//74 77//82
f 68//75 75//86 76//84
f 73//77 80//81 81//80
f 71//78 78//83 79//85
f 69//79 76//84 77//82
f 77//82 84//93 85//87
f 76//84 75//86 82//88
f 81//80 80//81 87//90
f 78//83 85//87 86//92
f 76//84 83//89 84//93
f 80//81 79//85 86//92
f 87//90 94//98 95//94
f 85//87 92//99 93//95
f 83//89 90//100 91//96
f 87//90 86//92 93//95
f 84//93 91//96 92//99
f 82//88 89//97 90//100
f 90//100 97//106 98//101
f 93//95 100//107 101//104
f 92//99 91//96 98//101
f 90//100 89//97 96//102
f 94//98 101//104 102//103
f 92//99 99//105 100//107
f 101//104 100//107 107//109
f 98//101 105//113 106//111
f 96//102 103//114 104//112
f 101//104 108//110 109//108
f 100//107 99//105 106//111
f 98//101 97//106 104//112
f 103//114 111//14 1//7
f 108//110 113//1 4//10
f 106//111 112//4 3//12
f 104//112 1//7 2//13
f 107//109 3//12 113//1
f 105//113 2//13 112//4
