# Blender v2.79 (sub 0) OBJ File: 'scene.blend'
# www.blender.org
o acorn_Sphere.003 0 1
v -3.874763 -0.097593 -0.280259
v -3.817714 -0.125297 -0.239001
v -3.779929 -0.209817 -0.139644
v -3.813689 -0.296233 -0.052146
v -3.954790 -0.076542 -0.281697
v -3.889541 -0.066291 -0.246239
v -3.836340 -0.085844 -0.196124
v -3.806812 -0.125882 -0.146136
v -3.796345 -0.175044 -0.101851
v -3.798747 -0.229271 -0.062246
v -3.820437 -0.281939 -0.036611
v -3.970273 -0.066293 -0.264456
v -3.919199 -0.046659 -0.213215
v -3.873719 -0.061101 -0.154501
v -3.844466 -0.100957 -0.104207
v -3.829292 -0.153236 -0.065165
v -3.823771 -0.212707 -0.034381
v -3.833981 -0.272974 -0.021530
v -3.991167 -0.063697 -0.250360
v -3.959222 -0.041688 -0.186213
v -3.924163 -0.054836 -0.120469
v -3.895281 -0.094645 -0.069925
v -3.873753 -0.147713 -0.035169
v -3.857542 -0.208512 -0.011597
v -3.852257 -0.270704 -0.009200
v -4.014291 -0.069150 -0.241554
v -4.003516 -0.052133 -0.169346
v -3.979990 -0.068000 -0.099210
v -3.951519 -0.107907 -0.048509
v -3.922959 -0.159316 -0.016431
v -3.894917 -0.217325 0.002635
v -3.872484 -0.275474 -0.001497
v -4.036125 -0.081822 -0.239380
v -4.045339 -0.076405 -0.165181
v -4.032701 -0.098592 -0.093960
v -4.004619 -0.138723 -0.043221
v -3.969419 -0.186279 -0.011804
v -3.930206 -0.237805 0.006150
v -3.891583 -0.286558 0.000405
v -4.053345 -0.099782 -0.244167
v -4.078322 -0.110808 -0.174351
v -4.074273 -0.141952 -0.105518
v -4.046496 -0.182403 -0.054864
v -4.006061 -0.224498 -0.021991
v -3.958037 -0.266834 -0.001588
v -3.906645 -0.302268 -0.003783
v -4.063328 -0.120298 -0.255188
v -4.097445 -0.150105 -0.195461
v -4.098375 -0.191480 -0.132125
v -4.070776 -0.232296 -0.081667
v -4.027305 -0.268152 -0.045443
v -3.974173 -0.299992 -0.019401
v -3.915378 -0.320213 -0.013423
v -4.064556 -0.140244 -0.270764
v -4.099797 -0.188313 -0.225298
v -4.101339 -0.239636 -0.169730
v -4.073762 -0.280806 -0.119548
v -4.029918 -0.310597 -0.078588
v -3.976158 -0.332231 -0.044576
v -3.916452 -0.337661 -0.027048
v -4.056841 -0.156586 -0.288525
v -4.085020 -0.219615 -0.259318
v -4.082714 -0.279089 -0.212608
v -4.054999 -0.320549 -0.162741
v -4.013501 -0.345371 -0.116380
v -3.963688 -0.358644 -0.073282
v -3.909703 -0.351955 -0.042583
v -4.041358 -0.166835 -0.305766
v -4.055361 -0.239246 -0.292342
v -4.045334 -0.303832 -0.254230
v -4.017344 -0.345474 -0.204671
v -3.980554 -0.367179 -0.153067
v -3.938663 -0.375208 -0.101147
v -3.896160 -0.360920 -0.057664
v -4.020463 -0.169430 -0.319862
v -4.015339 -0.244218 -0.319344
v -3.994891 -0.310097 -0.288262
v -3.966530 -0.351786 -0.238953
v -3.936093 -0.372702 -0.183062
v -3.904893 -0.379403 -0.123931
v -3.877883 -0.363190 -0.069994
v -3.997339 -0.163977 -0.328668
v -3.971045 -0.233773 -0.336211
v -3.939064 -0.296933 -0.309521
v -3.910292 -0.338524 -0.260368
v -3.886887 -0.361098 -0.201800
v -3.867518 -0.370590 -0.138163
v -3.857656 -0.358420 -0.077697
v -3.975506 -0.151306 -0.330842
v -3.929222 -0.209501 -0.340376
v -3.886352 -0.266341 -0.314771
v -3.857192 -0.307708 -0.265657
v -3.840427 -0.334135 -0.206428
v -3.832229 -0.350110 -0.141678
v -3.838558 -0.347336 -0.079599
v -3.958286 -0.133346 -0.326055
v -3.896238 -0.175098 -0.331206
v -3.844781 -0.222981 -0.303213
v -3.815314 -0.264028 -0.254014
v -3.803785 -0.295917 -0.196240
v -3.804398 -0.321081 -0.133940
v -3.823496 -0.331626 -0.075411
v -3.948303 -0.112830 -0.315034
v -3.877115 -0.135801 -0.310096
v -3.820678 -0.173453 -0.276606
v -3.791035 -0.214135 -0.227211
v -3.782541 -0.252262 -0.172789
v -3.788262 -0.287923 -0.116127
v -3.814763 -0.313681 -0.065771
v -4.010588 -0.109769 -0.293436
v -3.947075 -0.092883 -0.299458
v -3.788049 -0.165625 -0.189330
v -3.786278 -0.255684 -0.090952
v -3.859502 -0.324876 -0.029883
v -3.817714 -0.125297 -0.239001
v -3.836340 -0.085844 -0.196124
v -3.873719 -0.061101 -0.154501
v -3.924163 -0.054836 -0.120469
v -3.979990 -0.068000 -0.099210
v -4.032701 -0.098592 -0.093960
v -4.074273 -0.141952 -0.105518
v -4.098375 -0.191480 -0.132125
v -4.101339 -0.239636 -0.169730
v -4.082714 -0.279089 -0.212608
v -4.045334 -0.303832 -0.254230
v -3.994891 -0.310097 -0.288262
v -3.939064 -0.296933 -0.309521
v -3.886352 -0.266341 -0.314771
v -3.844781 -0.222981 -0.303213
v -3.820678 -0.173453 -0.276606
v -3.817714 -0.125297 -0.239001
v -3.836340 -0.085844 -0.196124
v -3.873719 -0.061101 -0.154501
v -3.924163 -0.054836 -0.120469
v -3.979990 -0.068000 -0.099210
v -4.032701 -0.098592 -0.093960
v -4.074273 -0.141952 -0.105518
v -4.098375 -0.191480 -0.132125
v -4.101339 -0.239636 -0.169730
v -4.082714 -0.279089 -0.212608
v -4.045334 -0.303832 -0.254230
v -3.994891 -0.310097 -0.288262
v -3.939064 -0.296933 -0.309521
v -3.886352 -0.266341 -0.314771
v -3.844781 -0.222981 -0.303213
v -3.820678 -0.173453 -0.276606
vn 0.9574 -0.0830 0.2766
vn 0.8820 0.3403 0.3260
vn 0.8654 0.1119 0.4885
vn 0.9520 0.2812 -0.1209
vn 0.6762 0.7291 -0.1057
vn 0.8343 0.5304 0.1500
vn 0.4646 0.6427 -0.6092
vn -0.0295 0.7864 -0.6170
vn 0.3708 0.8413 -0.3934
vn 0.7271 -0.2211 0.6499
vn 0.7828 -0.3392 0.5216
vn 0.9912 0.1088 0.0744
vn 0.7920 0.4837 -0.3724
vn 0.0215 0.6784 -0.7343
vn -0.4059 0.5779 -0.7080
vn 0.4059 -0.5779 0.7080
vn 0.6152 -0.1471 0.7745
vn 0.5982 0.6868 0.4129
vn 0.6626 0.4855 0.5702
vn 0.1826 0.9658 -0.1838
vn 0.4437 0.8830 0.1531
vn -0.1317 0.8541 -0.5030
vn 0.6807 0.2342 0.6941
vn -0.0713 0.9974 -0.0125
vn 0.1299 0.9220 0.3648
vn -0.2698 0.8713 -0.4099
vn 0.4642 -0.1284 0.8763
vn 0.4314 0.2651 0.8623
vn 0.2795 0.7263 0.6279
vn 0.3666 0.5223 0.7699
vn 0.2972 -0.1678 0.9399
vn 0.1556 0.2001 0.9673
vn -0.0731 0.6432 0.7622
vn -0.3523 0.9311 0.0945
vn 0.0391 0.4450 0.8947
vn -0.2173 0.8401 0.4970
vn -0.4226 0.8353 -0.3517
vn -0.5669 0.7515 -0.3374
vn -0.6176 0.7771 0.1209
vn -0.1048 0.0490 0.9933
vn 0.1394 -0.2593 0.9557
vn -0.2702 0.2655 0.9254
vn -0.5451 0.6498 0.5297
vn -0.4061 0.4499 0.7954
vn 0.0150 -0.3890 0.9211
vn -0.6687 0.1760 0.7223
vn -0.5141 0.0111 0.8576
vn -0.8037 0.3801 0.4578
vn -0.6807 0.6328 -0.3690
vn -0.3103 -0.1653 0.9362
vn -0.8269 0.5589 0.0627
vn -0.7466 0.4973 -0.4418
vn -0.0571 -0.5373 0.8415
vn -0.4293 -0.4100 0.8047
vn -0.8210 -0.1368 0.5543
vn -0.9482 0.3095 -0.0712
vn -0.6555 -0.2795 0.7015
vn -0.9536 0.0721 0.2923
vn -0.4440 -0.6479 0.6189
vn -0.9720 -0.2274 0.0584
vn -0.8397 -0.4411 0.3167
vn -0.7548 0.3655 -0.5447
vn -0.9631 0.0671 -0.2605
vn -0.0660 -0.6814 0.7289
vn -0.6729 -0.5621 0.4808
vn -0.3519 -0.8429 0.4070
vn -0.0102 -0.7995 0.6006
vn -0.5636 -0.7935 0.2293
vn -0.8694 -0.1314 -0.4763
vn -0.8562 -0.4728 -0.2083
vn -0.7038 0.2575 -0.6621
vn -0.7220 -0.6903 0.0458
vn -0.3443 -0.9387 -0.0149
vn -0.6237 -0.6267 -0.4671
vn -0.6015 0.1898 -0.7760
vn 0.1016 -0.8735 0.4760
vn -0.1673 -0.9651 0.2014
vn -0.4859 -0.8466 -0.2171
vn -0.6812 -0.2560 -0.6858
vn 0.2526 -0.8923 0.3742
vn 0.0819 -0.9961 0.0332
vn -0.3099 -0.6657 -0.6788
vn -0.1672 -0.8862 -0.4321
vn -0.4634 0.1726 -0.8691
vn -0.4273 -0.2875 -0.8571
vn -0.0483 -0.9755 -0.2146
vn 0.1854 -0.8030 -0.5663
vn -0.1463 -0.2213 -0.9642
vn 0.3578 -0.9310 -0.0718
vn 0.4197 -0.8529 0.3106
vn 0.2792 -0.8983 -0.3394
vn 0.0373 -0.5838 -0.8110
vn -0.3106 0.2087 -0.9273
vn 0.5774 -0.7613 0.2948
vn 0.5184 -0.6098 -0.5995
vn 0.5885 -0.7187 -0.3702
vn 0.3651 -0.3935 -0.8437
vn -0.1663 0.2924 -0.9417
vn 0.6182 -0.7799 -0.0977
vn 0.1191 -0.0673 -0.9906
vn 0.3283 0.1509 -0.9324
vn 0.6237 -0.1238 -0.7718
vn -0.0526 0.4111 -0.9101
vn 0.7018 -0.6316 0.3294
vn 0.8324 -0.4643 -0.3023
vn 0.8236 -0.5656 -0.0406
vn 0.7810 -0.3359 -0.5265
vn 0.7739 -0.4834 0.4090
vn 0.9427 -0.3209 0.0908
vn 0.9333 -0.0230 -0.3584
vn 0.0134 0.5466 -0.8372
vn 0.4496 0.4003 -0.7985
vn 0.9739 -0.1737 -0.1462
vn 0.7736 0.1842 -0.6063
s 1
f 113//1 9//2 10//3
f 112//4 7//5 8//6
f 1//7 5//8 6//9
f 113//1 11//10 4//11
f 112//4 9//2 3//12
f 2//13 6//9 7//5
f 111//14 110//15 5//8
f 114//16 4//11 11//10
f 10//3 18//17 11//10
f 9//2 15//18 16//19
f 7//5 13//20 14//21
f 5//8 110//15 12//22
f 114//16 11//10 18//17
f 10//3 16//19 17//23
f 7//5 15//18 8//6
f 6//9 12//22 13//20
f 14//21 20//24 21//25
f 12//22 110//15 19//26
f 114//16 18//17 25//27
f 16//19 24//28 17//23
f 14//21 22//29 15//18
f 12//22 20//24 13//20
f 18//17 24//28 25//27
f 16//19 22//29 23//30
f 114//16 25//27 32//31
f 23//30 31//32 24//28
f 21//25 29//33 22//29
f 19//26 27//34 20//24
f 25//27 31//32 32//31
f 22//29 30//35 23//30
f 20//24 28//36 21//25
f 19//26 110//15 26//37
f 27//34 33//38 34//39
f 32//31 38//40 39//41
f 29//33 37//42 30//35
f 27//34 35//43 28//36
f 26//37 110//15 33//38
f 114//16 32//31 39//41
f 30//35 38//40 31//32
f 29//33 35//43 36//44
f 38//40 46//45 39//41
f 37//42 43//46 44//47
f 34//39 42//48 35//43
f 33//38 110//15 40//49
f 114//16 39//41 46//45
f 37//42 45//50 38//40
f 36//44 42//48 43//46
f 33//38 41//51 34//39
f 40//49 110//15 47//52
f 114//16 46//45 53//53
f 44//47 52//54 45//50
f 42//48 50//55 43//46
f 40//49 48//56 41//51
f 46//45 52//54 53//53
f 44//47 50//55 51//57
f 42//48 48//56 49//58
f 51//57 59//59 52//54
f 50//55 56//60 57//61
f 48//56 54//62 55//63
f 52//54 60//64 53//53
f 50//55 58//65 51//57
f 48//56 56//60 49//58
f 47//52 110//15 54//62
f 114//16 53//53 60//64
f 60//64 66//66 67//67
f 57//61 65//68 58//65
f 56//60 62//69 63//70
f 54//62 110//15 61//71
f 114//16 60//64 67//67
f 59//59 65//68 66//66
f 57//61 63//70 64//72
f 55//63 61//71 62//69
f 64//72 72//73 65//68
f 62//69 70//74 63//70
f 61//71 110//15 68//75
f 114//16 67//67 74//76
f 65//68 73//77 66//66
f 64//72 70//74 71//78
f 61//71 69//79 62//69
f 67//67 73//77 74//76
f 114//16 74//76 81//80
f 72//73 80//81 73//77
f 71//78 77//82 78//83
f 69//79 75//84 76//85
f 73//77 81//80 74//76
f 71//78 79//86 72//73
f 69//79 77//82 70//74
f 68//75 110//15 75//84
f 77//82 85//87 78//83
f 75//84 83//88 76//85
f 81//80 87//89 88//90
f 78//83 86//91 79//86
f 76//85 84//92 77//82
f 75//84 110//15 82//93
f 114//16 81//80 88//90
f 80//81 86//91 87//89
f 87//89 95//94 88//90
f 86//91 92//95 93//96
f 83//88 91//97 84//92
f 82//93 110//15 89//98
f 114//16 88//90 95//94
f 87//89 93//96 94//99
f 84//92 92//95 85//87
f 83//88 89//98 90//100
f 91//97 97//101 98//102
f 89//98 110//15 96//103
f 114//16 95//94 102//104
f 94//99 100//105 101//106
f 92//95 98//102 99//107
f 90//100 96//103 97//101
f 94//99 102//104 95//94
f 92//95 100//105 93//96
f 114//16 102//104 109//108
f 100//105 108//109 101//106
f 98//102 106//110 99//107
f 97//101 103//111 104//112
f 101//106 109//108 102//104
f 99//107 107//113 100//105
f 98//102 104//112 105//114
f 96//103 110//15 103//111
f 104//112 111//14 1//7
f 108//109 4//11 109//108
f 106//110 3//12 107//113
f 104//112 2//13 105//114
f 103//111 110//15 111//14
f 114//16 109//108 4//11
f 107//113 113//1 108//109
f 105//114 112//4 106//110
f 113//1 3//12 9//2
f 112//4 2//13 7//5
f 1//7 111//14 5//8
f 113//1 10//3 11//10
f 112//4 8//6 9//2
f 2//13 1//7 6//9
f 10//3 17//23 18//17
f 9//2 8//6 15//18
f 7//5 6//9 13//20
f 10//3 9//2 16//19
f 7//5 14//21 15//18
f 6//9 5//8 12//22
f 14//21 13//20 20//24
f 16//19 23//30 24//28
f 14//21 21//25 22//29
f 12//22 19//26 20//24
f 18//17 17//23 24//28
f 16//19 15//18 22//29
f 23//30 30//35 31//32
f 21//25 28//36 29//33
f 19//26 26//37 27//34
f 25//27 24//28 31//32
f 22//29 29//33 30//35
f 20//24 27//34 28//36
f 27//34 26//37 33//38
f 32//31 31//32 38//40
f 29//33 36//44 37//42
f 27//34 34//39 35//43
f 30//35 37//42 38//40
f 29//33 28//36 35//43
f 38//40 45//50 46//45
f 37//42 36//44 43//46
f 34//39 41//51 42//48
f 37//42 44//47 45//50
f 36//44 35//43 42//48
f 33//38 40//49 41//51
f 44//47 51//57 52//54
f 42//48 49//58 50//55
f 40//49 47//52 48//56
f 46//45 45//50 52//54
f 44//47 43//46 50//55
f 42//48 41//51 48//56
f 51//57 58//65 59//59
f 50//55 49//58 56//60
f 48//56 47//52 54//62
f 52//54 59//59 60//64
f 50//55 57//61 58//65
f 48//56 55//63 56//60
f 60//64 59//59 66//66
f 57//61 64//72 65//68
f 56//60 55//63 62//69
f 59//59 58//65 65//68
f 57//61 56//60 63//70
f 55//63 54//62 61//71
f 64//72 71//78 72//73
f 62//69 69//79 70//74
f 65//68 72//73 73//77
f 64//72 63//70 70//74
f 61//71 68//75 69//79
f 67//67 66//66 73//77
f 72//73 79//86 80//81
f 71//78 70//74 77//82
f 69//79 68//75 75//84
f 73//77 80//81 81//80
f 71//78 78//83 79//86
f 69//79 76//85 77//82
f 77//82 84//92 85//87
f 75//84 82//93 83//88
f 81//80 80//81 87//89
f 78//83 85//87 86//91
f 76//85 83//88 84//92
f 80//81 79//86 86//91
f 87//89 94//99 95//94
f 86//91 85//87 92//95
f 83//88 90//100 91//97
f 87//89 86//91 93//96
f 84//92 91//97 92//95
f 83//88 82//93 89//98
f 91//97 90//100 97//101
f 94//99 93//96 100//105
f 92//95 91//97 98//102
f 90//100 89//98 96//103
f 94//99 101//106 102//104
f 92//95 99//107 100//105
f 100//105 107//113 108//109
f 98//102 105//114 106//110
f 97//101 96//103 103//111
f 101//106 108//109 109//108
f 99//107 106//110 107//113
f 98//102 97//101 104//112
f 104//112 103//111 111//14
f 108//109 113//1 4//11
f 106//110 112//4 3//12
f 104//112 1//7 2//13
f 107//113 3//12 113//1
f 105//114 2//13 112//4
