# Blender v2.79 (sub 0) OBJ File: 'scene.blend'
# www.blender.org
o Cylinder_Cylinder.008 0 1
v -2.092875 1.415033 -1.150818
v -2.092875 1.406310 -1.142542
v -2.149121 1.415033 -1.162774
v -2.152488 1.406310 -1.155213
v -2.195642 1.415033 -1.196573
v -2.201792 1.406310 -1.191035
v -2.224393 1.415033 -1.246372
v -2.232265 1.406310 -1.243814
v -2.230403 1.415033 -1.303559
v -2.238635 1.406310 -1.304424
v -2.212634 1.415033 -1.358248
v -2.219802 1.406310 -1.362386
v -2.174157 1.415033 -1.400980
v -2.179022 1.406310 -1.407676
v -2.121626 1.415033 -1.424369
v -2.123347 1.406310 -1.432464
v -2.064124 1.415033 -1.424369
v -2.062403 1.406310 -1.432464
v -2.011592 1.415033 -1.400980
v -2.006727 1.406310 -1.407676
v -1.973116 1.415033 -1.358248
v -1.965948 1.406310 -1.362386
v -1.955347 1.415033 -1.303559
v -1.947115 1.406310 -1.304424
v -1.961357 1.415033 -1.246372
v -1.953485 1.406310 -1.243814
v -1.990108 1.415033 -1.196573
v -1.983958 1.406310 -1.191035
v -2.036629 1.415033 -1.162774
v -2.033262 1.406310 -1.155213
v -2.092875 1.120575 -1.173191
v -2.092875 1.129178 -1.163714
v -2.143876 1.129178 -1.174554
v -2.140021 1.120575 -1.183212
v -2.186059 1.129178 -1.205202
v -2.179015 1.120575 -1.211543
v -2.212129 1.129178 -1.250357
v -2.203115 1.120575 -1.253285
v -2.217579 1.129178 -1.302211
v -2.208153 1.120575 -1.301221
v -2.201467 1.129178 -1.351800
v -2.193259 1.120575 -1.347061
v -2.166578 1.129178 -1.390548
v -2.161007 1.120575 -1.382880
v -2.118945 1.129178 -1.411755
v -2.116975 1.120575 -1.402485
v -2.066805 1.129178 -1.411755
v -2.068775 1.120575 -1.402485
v -2.019172 1.129178 -1.390548
v -2.024743 1.120575 -1.382880
v -1.984283 1.129178 -1.351800
v -1.992491 1.120575 -1.347061
v -1.968171 1.129178 -1.302211
v -1.977597 1.120575 -1.301221
v -1.973621 1.129178 -1.250357
v -1.982635 1.120575 -1.253285
v -1.999691 1.129178 -1.205202
v -2.006735 1.120575 -1.211543
v -2.041874 1.129178 -1.174554
v -2.045729 1.120575 -1.183212
vn 0.0000 0.3190 0.9477
vn -0.3689 -0.4212 0.8285
vn 0.0000 -0.4212 0.9069
vn -0.8626 -0.4212 0.2803
vn -0.9425 0.3190 -0.0991
vn -0.9020 -0.4212 -0.0948
vn -0.7855 -0.4212 -0.4535
vn -0.8208 0.3190 -0.4739
vn -0.5331 -0.4212 -0.7338
vn -0.5571 0.3190 -0.7667
vn -0.1885 -0.4212 -0.8871
vn -0.1970 0.3190 -0.9270
vn 0.1885 -0.4212 -0.8871
vn 0.1970 0.3190 -0.9270
vn 0.5331 -0.4212 -0.7338
vn 0.5571 0.3190 -0.7667
vn 0.7855 -0.4212 -0.4535
vn 0.9425 0.3190 -0.0991
vn 0.9020 -0.4212 -0.0948
vn 0.8626 -0.4212 0.2803
vn 0.9013 0.3190 0.2929
vn 0.6740 -0.4212 0.6069
vn 0.7043 0.3190 0.6341
vn 0.3689 -0.4212 0.8285
vn -0.3855 0.3190 0.8658
vn -0.6740 -0.4212 0.6069
vn -0.7043 0.3190 0.6341
vn 0.3855 0.3190 0.8658
vn 0.0000 0.8993 0.4373
vn -0.1779 0.8993 0.3995
vn -0.3250 0.8993 0.2926
vn -0.9013 0.3190 0.2929
vn -0.4159 0.8993 0.1351
vn -0.4349 0.8993 -0.0457
vn -0.3787 0.8993 -0.2187
vn -0.2570 0.8993 -0.3538
vn -0.0909 0.8993 -0.4277
vn 0.0909 0.8993 -0.4277
vn 0.2571 0.8993 -0.3538
vn 0.3787 0.8993 -0.2186
vn 0.8208 0.3190 -0.4739
vn 0.4349 0.8993 -0.0457
vn 0.4159 0.8993 0.1351
vn 0.3250 0.8993 0.2926
vn 0.1779 0.8993 0.3995
vn 0.0000 -0.9163 0.4006
vn -0.1629 -0.9163 0.3659
vn -0.2976 -0.9163 0.2680
vn -0.3810 -0.9163 0.1238
vn -0.3469 -0.9163 -0.2003
vn -0.3983 -0.9163 -0.0418
vn -0.2354 -0.9163 -0.3240
vn -0.0833 -0.9163 -0.3918
vn 0.0833 -0.9163 -0.3918
vn 0.3469 -0.9163 -0.2003
vn 0.2355 -0.9163 -0.3240
vn 0.3984 -0.9163 -0.0419
vn 0.3810 -0.9163 0.1238
vn 0.2977 -0.9163 0.2680
vn 0.1629 -0.9163 0.3659
s 1
f 2//1 33//2 32//3
f 37//4 10//5 39//6
f 10//5 41//7 39//6
f 12//8 43//9 41//7
f 14//10 45//11 43//9
f 16//12 47//13 45//11
f 18//14 49//15 47//13
f 20//16 51//17 49//15
f 51//17 24//18 53//19
f 24//18 55//20 53//19
f 26//21 57//22 55//20
f 28//23 59//24 57//22
f 4//25 35//26 33//2
f 6//27 37//4 35//26
f 30//28 32//3 59//24
f 4//25 1//29 3//30
f 4//25 5//31 6//27
f 8//32 5//31 7//33
f 10//5 7//33 9//34
f 10//5 11//35 12//8
f 14//10 11//35 13//36
f 14//10 15//37 16//12
f 16//12 17//38 18//14
f 20//16 17//38 19//39
f 20//16 21//40 22//41
f 22//41 23//42 24//18
f 24//18 25//43 26//21
f 26//21 27//44 28//23
f 28//23 29//45 30//28
f 2//1 29//45 1//29
f 23//42 15//37 7//33
f 33//2 31//46 32//3
f 35//26 34//47 33//2
f 37//4 36//48 35//26
f 39//6 38//49 37//4
f 39//6 42//50 40//51
f 41//7 44//52 42//50
f 43//9 46//53 44//52
f 47//13 46//53 45//11
f 49//15 48//54 47//13
f 49//15 52//55 50//56
f 53//19 52//55 51//17
f 55//20 54//57 53//19
f 57//22 56//58 55//20
f 59//24 58//59 57//22
f 32//3 60//60 59//24
f 46//53 50//56 58//59
f 2//1 4//25 33//2
f 37//4 8//32 10//5
f 10//5 12//8 41//7
f 12//8 14//10 43//9
f 14//10 16//12 45//11
f 16//12 18//14 47//13
f 18//14 20//16 49//15
f 20//16 22//41 51//17
f 51//17 22//41 24//18
f 24//18 26//21 55//20
f 26//21 28//23 57//22
f 28//23 30//28 59//24
f 4//25 6//27 35//26
f 6//27 8//32 37//4
f 30//28 2//1 32//3
f 4//25 2//1 1//29
f 4//25 3//30 5//31
f 8//32 6//27 5//31
f 10//5 8//32 7//33
f 10//5 9//34 11//35
f 14//10 12//8 11//35
f 14//10 13//36 15//37
f 16//12 15//37 17//38
f 20//16 18//14 17//38
f 20//16 19//39 21//40
f 22//41 21//40 23//42
f 24//18 23//42 25//43
f 26//21 25//43 27//44
f 28//23 27//44 29//45
f 2//1 30//28 29//45
f 5//31 3//30 1//29
f 1//29 29//45 27//44
f 27//44 25//43 1//29
f 25//43 23//42 1//29
f 23//42 21//40 19//39
f 19//39 17//38 23//42
f 17//38 15//37 23//42
f 15//37 13//36 11//35
f 11//35 9//34 15//37
f 9//34 7//33 15//37
f 7//33 5//31 23//42
f 5//31 1//29 23//42
f 33//2 34//47 31//46
f 35//26 36//48 34//47
f 37//4 38//49 36//48
f 39//6 40//51 38//49
f 39//6 41//7 42//50
f 41//7 43//9 44//52
f 43//9 45//11 46//53
f 47//13 48//54 46//53
f 49//15 50//56 48//54
f 49//15 51//17 52//55
f 53//19 54//57 52//55
f 55//20 56//58 54//57
f 57//22 58//59 56//58
f 59//24 60//60 58//59
f 32//3 31//46 60//60
f 60//60 31//46 34//47
f 34//47 36//48 38//49
f 38//49 40//51 34//47
f 40//51 42//50 34//47
f 42//50 44//52 46//53
f 46//53 48//54 50//56
f 50//56 52//55 54//57
f 54//57 56//58 50//56
f 56//58 58//59 50//56
f 58//59 60//60 42//50
f 60//60 34//47 42//50
f 42//50 46//53 58//59
