# Blender v2.79 (sub 0) OBJ File: 'scene.blend'
# www.blender.org
o candle1.001_Cylinder.006 0 1
v -0.988669 -0.405268 -0.607332
v -1.063890 -0.405268 -0.631773
v -1.110379 -0.405268 -0.695759
v -1.110379 -0.405268 -0.774852
v -1.063890 -0.405268 -0.838838
v -0.988669 -0.405268 -0.863279
v -0.913448 -0.405268 -0.838838
v -0.866958 -0.405268 -0.774852
v -0.866958 -0.405268 -0.695759
v -0.913448 -0.405268 -0.631773
v -0.988669 -0.126367 -0.599552
v -0.988669 -0.139760 -0.586482
v -1.068463 -0.126367 -0.625479
v -1.076145 -0.139760 -0.614905
v -1.117778 -0.126367 -0.693355
v -1.130208 -0.139760 -0.689316
v -1.117778 -0.126367 -0.777256
v -1.130208 -0.139760 -0.781295
v -1.068463 -0.126367 -0.845132
v -1.076145 -0.139760 -0.855706
v -0.988669 -0.126367 -0.871059
v -0.988669 -0.139760 -0.884129
v -0.908875 -0.126367 -0.845132
v -0.901192 -0.139760 -0.855706
v -0.859559 -0.126367 -0.777256
v -0.847129 -0.139760 -0.781295
v -0.859559 -0.126367 -0.693355
v -0.847129 -0.139760 -0.689316
v -0.908875 -0.126367 -0.625478
v -0.901192 -0.139760 -0.614905
vn 0.5575 0.3169 0.7673
vn 0.0000 -0.6727 0.7399
vn 0.4349 -0.6727 0.5986
vn -0.9020 0.3169 0.2931
vn -0.7037 -0.6727 -0.2286
vn -0.7037 -0.6727 0.2286
vn -0.9020 0.3169 -0.2931
vn -0.4349 -0.6727 -0.5986
vn -0.5575 0.3169 -0.7673
vn 0.0000 -0.6727 -0.7399
vn 0.0000 0.3169 -0.9484
vn 0.4349 -0.6727 -0.5986
vn 0.5575 0.3169 -0.7673
vn 0.7037 -0.6727 -0.2286
vn 0.9020 0.3169 -0.2931
vn 0.7037 -0.6727 0.2286
vn 0.9020 0.3169 0.2931
vn 0.0000 0.3169 0.9484
vn -0.4349 -0.6727 0.5986
vn -0.5575 0.3169 0.7673
vn -0.2646 0.8930 0.3641
vn -0.4281 0.8930 0.1391
vn -0.4281 0.8930 -0.1391
vn -0.2646 0.8930 -0.3641
vn 0.0000 0.8930 -0.4501
vn 0.2646 0.8929 -0.3641
vn 0.4281 0.8930 -0.1391
vn 0.4281 0.8930 0.1391
vn 0.2646 0.8930 0.3641
vn 0.0000 0.8930 0.4501
s 1
f 30//1 1//2 10//3
f 16//4 4//5 3//6
f 18//7 5//8 4//5
f 20//9 6//10 5//8
f 22//11 7//12 6//10
f 24//13 8//14 7//12
f 26//15 9//16 8//14
f 28//17 10//3 9//16
f 12//18 2//19 1//2
f 14//20 3//6 2//19
f 4//5 8//14 10//3
f 12//18 13//21 14//20
f 16//4 13//21 15//22
f 16//4 17//23 18//7
f 18//7 19//24 20//9
f 22//11 19//24 21//25
f 22//11 23//26 24//13
f 24//13 25//27 26//15
f 26//15 27//28 28//17
f 30//1 27//28 29//29
f 12//18 29//29 11//30
f 27//28 23//26 19//24
f 30//1 12//18 1//2
f 16//4 18//7 4//5
f 18//7 20//9 5//8
f 20//9 22//11 6//10
f 22//11 24//13 7//12
f 24//13 26//15 8//14
f 26//15 28//17 9//16
f 28//17 30//1 10//3
f 12//18 14//20 2//19
f 14//20 16//4 3//6
f 10//3 1//2 4//5
f 1//2 2//19 4//5
f 2//19 3//6 4//5
f 4//5 5//8 6//10
f 6//10 7//12 8//14
f 8//14 9//16 10//3
f 4//5 6//10 8//14
f 12//18 11//30 13//21
f 16//4 14//20 13//21
f 16//4 15//22 17//23
f 18//7 17//23 19//24
f 22//11 20//9 19//24
f 22//11 21//25 23//26
f 24//13 23//26 25//27
f 26//15 25//27 27//28
f 30//1 28//17 27//28
f 12//18 30//1 29//29
f 15//22 13//21 11//30
f 11//30 29//29 27//28
f 27//28 25//27 23//26
f 23//26 21//25 19//24
f 19//24 17//23 27//28
f 17//23 15//22 27//28
f 15//22 11//30 27//28
