# Blender v2.79 (sub 0) OBJ File: 'scene.blend'
# www.blender.org
o pumpkin_stem_big_Circle.001 0 1
v -2.418468 3.172056 -2.911607
v -2.348608 3.177489 -2.775108
v -2.190726 3.182628 -2.785330
v -2.116773 3.185480 -2.934437
v -2.191656 3.185618 -3.082162
v -2.348167 3.179077 -3.078163
v -2.388479 3.496247 -2.932349
v -2.357279 3.479873 -2.819063
v -2.251100 3.421167 -2.803903
v -2.203101 3.389595 -2.908101
v -2.218520 3.399205 -3.036463
v -2.324162 3.460726 -3.052293
v -2.267867 3.599821 -2.927801
v -2.246286 3.571878 -2.812755
v -2.189799 3.494733 -2.807393
v -2.175227 3.462146 -2.907612
v -2.166818 3.474511 -3.021698
v -2.222726 3.545004 -3.048170
v -2.057178 3.650646 -2.910078
v -2.066862 3.624656 -2.832484
v -2.068809 3.542678 -2.824949
v -2.064432 3.498986 -2.903098
v -2.054939 3.522386 -2.988202
v -2.048832 3.601197 -2.992030
vn 0.8786 -0.4773 0.0157
vn 0.5271 -0.5092 0.6803
vn -0.7886 -0.6148 0.0112
vn -0.4450 -0.5427 -0.7123
vn 0.6085 -0.0143 -0.7934
vn 0.4506 -0.4929 -0.7443
vn 0.9772 0.0073 0.2122
vn 0.3880 -0.0005 0.9217
vn -0.6350 0.3439 0.6918
vn -0.8817 0.4553 -0.1234
vn -0.4703 0.2667 -0.8412
vn -0.3846 -0.5663 0.7290
vn -0.4483 0.8863 -0.1160
vn 0.6757 0.4498 -0.5840
vn -0.0773 0.4682 -0.8802
vn 0.5550 0.8311 -0.0334
vn 0.7359 -0.6668 0.1177
vn 0.6803 -0.7081 0.1893
vn 0.7619 -0.4368 -0.4782
vn -0.2791 0.5920 0.7560
vn 0.6653 -0.2685 0.6966
vn 0.5113 0.5794 0.6347
vn 0.5943 -0.4329 -0.6777
vn 0.3233 -0.3371 0.8842
s 1
f 4//1 3//2 1//3
f 6//4 11//5 5//6
f 3//2 10//7 9//8
f 1//3 8//9 7//10
f 1//3 12//11 6//4
f 4//1 11//5 10//7
f 2//12 9//8 8//9
f 13//13 24//14 18//15
f 19//16 22//17 24//14
f 16//18 23//19 22//17
f 14//20 21//21 20//22
f 18//15 23//19 17//23
f 15//24 22//17 21//21
f 13//13 20//22 19//16
f 13//13 12//11 7//10
f 18//15 11//5 12//11
f 17//23 10//7 11//5
f 16//18 9//8 10//7
f 9//8 14//20 8//9
f 8//9 13//13 7//10
f 3//2 2//12 1//3
f 1//3 6//4 4//1
f 6//4 5//6 4//1
f 6//4 12//11 11//5
f 3//2 4//1 10//7
f 1//3 2//12 8//9
f 1//3 7//10 12//11
f 4//1 5//6 11//5
f 2//12 3//2 9//8
f 13//13 19//16 24//14
f 19//16 20//22 21//21
f 21//21 22//17 19//16
f 22//17 23//19 24//14
f 16//18 17//23 23//19
f 14//20 15//24 21//21
f 18//15 24//14 23//19
f 15//24 16//18 22//17
f 13//13 14//20 20//22
f 13//13 18//15 12//11
f 18//15 17//23 11//5
f 17//23 16//18 10//7
f 16//18 15//24 9//8
f 9//8 15//24 14//20
f 8//9 14//20 13//13
