# Blender v2.79 (sub 0) OBJ File: 'dress.blend'
# www.blender.org
o dress
v 0.004133 -1.102822 -1.406790
v 0.000000 1.000000 -0.469094
v 0.344706 -1.104660 -0.781399
v 0.190798 1.000000 -0.428538
v 1.042683 -1.102822 -0.944397
v 0.348605 1.000000 -0.313885
v 1.333241 -1.102822 -0.441136
v 0.446135 1.000000 -0.144958
v 1.393984 -1.102822 0.136797
v 0.000000 -0.476128 -0.860937
v 1.214409 -1.102822 0.689471
v 0.406247 1.000000 0.234547
v 0.825567 -1.102822 1.121324
v 0.275726 1.000000 0.379505
v 0.294691 -1.102822 1.357685
v 0.097530 1.000000 0.458843
v -0.286425 -1.102822 1.357685
v -0.097530 1.000000 0.458843
v -0.817301 -1.102822 1.121324
v -0.275726 1.000000 0.379505
v -1.206143 -1.102822 0.689471
v -0.406247 1.000000 0.234547
v -1.385718 -1.102822 0.136796
v -0.466524 1.000000 0.049034
v -1.324975 -1.102822 -0.441136
v -0.446135 1.000000 -0.144958
v -1.034417 -1.102822 -0.944398
v -0.348604 1.000000 -0.313885
v -0.564284 -1.102822 -1.285969
v -0.190797 1.000000 -0.428538
v 0.466524 1.000000 0.049034
v 0.350174 -0.476128 -0.786505
v 0.639801 -0.476128 -0.576079
v 0.818799 -0.476128 -0.266044
v 0.745593 -0.476128 0.430468
v 0.506046 -0.476128 0.696512
v 0.178999 -0.476128 0.842123
v -0.178999 -0.476128 0.842123
v -0.506046 -0.476128 0.696512
v -0.745593 -0.476128 0.430468
v -0.856220 -0.476128 0.089992
v -0.818799 -0.476128 -0.266044
v -0.639801 -0.476128 -0.576079
v -0.350174 -0.476128 -0.786505
v 0.856220 -0.476128 0.089992
vn 0.2012 0.2513 -0.9468
vn 0.5689 0.2513 -0.7831
vn 0.8382 0.2513 -0.4840
vn 0.9626 0.2513 -0.1012
vn 0.9205 0.2513 0.2991
vn 0.7193 0.2513 0.6477
vn 0.3937 0.2513 0.8842
vn 0.0000 0.2513 0.9679
vn -0.3937 0.2513 0.8842
vn -0.7193 0.2513 0.6477
vn -0.9205 0.2513 0.2991
vn -0.9626 0.2513 -0.1012
vn -0.8382 0.2513 -0.4840
vn 0.0000 1.0000 0.0000
vn -0.5689 0.2513 -0.7831
vn -0.2012 0.2513 -0.9468
vn -0.2274 -0.0059 -0.9738
vn -0.1584 0.6479 -0.7451
vn -0.4488 0.6457 -0.6178
vn -0.6634 0.6428 -0.3830
vn -0.7643 0.6398 -0.0803
vn -0.7330 0.6371 0.2382
vn -0.5739 0.6353 0.5167
vn -0.3143 0.6347 0.7060
vn 0.0000 0.6353 0.7723
vn 0.3135 0.6371 0.7041
vn 0.5711 0.6398 0.5143
vn 0.7285 0.6428 0.2367
vn 0.7594 0.6457 -0.0798
vn 0.6597 0.6479 -0.3809
vn 0.4471 0.6491 -0.6154
vn 0.1582 0.6491 -0.7441
vn 0.8781 -0.0115 -0.4783
vn -0.0006 -1.0000 -0.0026
vn 0.0023 -1.0000 -0.0013
vn 0.0019 -1.0000 -0.0002
vn 0.0014 -1.0000 0.0004
vn 0.0008 -1.0000 0.0008
vn 0.0004 -1.0000 0.0009
vn -0.0000 -1.0000 0.0009
vn -0.0003 -1.0000 0.0008
vn -0.0006 -1.0000 0.0006
vn -0.0009 -1.0000 0.0003
vn -0.0011 -1.0000 -0.0001
vn -0.0012 -1.0000 -0.0007
vn -0.0011 -1.0000 -0.0016
s off
f 2//1 32//1 10//1
f 4//2 33//2 32//2
f 6//3 34//3 33//3
f 8//4 45//4 34//4
f 31//5 35//5 45//5
f 12//6 36//6 35//6
f 14//7 37//7 36//7
f 16//8 38//8 37//8
f 18//9 39//9 38//9
f 20//10 40//10 39//10
f 22//11 41//11 40//11
f 24//12 42//12 41//12
f 42//13 28//13 43//13
f 24//14 16//14 8//14
f 28//15 44//15 43//15
f 30//16 10//16 44//16
f 32//17 5//17 3//17
f 29//18 10//18 1//18
f 27//19 44//19 29//19
f 25//20 43//20 27//20
f 23//21 42//21 25//21
f 21//22 41//22 23//22
f 19//23 40//23 21//23
f 17//24 39//24 19//24
f 37//25 17//25 15//25
f 36//26 15//26 13//26
f 35//27 13//27 11//27
f 45//28 11//28 9//28
f 34//29 9//29 7//29
f 33//30 7//30 5//30
f 5//31 32//31 33//31
f 32//32 1//32 10//32
f 32//33 3//33 1//33
f 29//34 1//34 3//34
f 2//1 4//1 32//1
f 4//2 6//2 33//2
f 6//3 8//3 34//3
f 8//4 31//4 45//4
f 31//5 12//5 35//5
f 12//6 14//6 36//6
f 14//7 16//7 37//7
f 16//8 18//8 38//8
f 18//9 20//9 39//9
f 20//10 22//10 40//10
f 22//11 24//11 41//11
f 24//12 26//12 42//12
f 42//13 26//13 28//13
f 6//14 4//14 2//14
f 2//14 30//14 28//14
f 28//14 26//14 24//14
f 24//14 22//14 20//14
f 20//14 18//14 16//14
f 16//14 14//14 12//14
f 12//14 31//14 16//14
f 31//14 8//14 16//14
f 8//14 6//14 2//14
f 2//14 28//14 24//14
f 24//14 20//14 16//14
f 8//14 2//14 24//14
f 28//15 30//15 44//15
f 30//16 2//16 10//16
f 29//18 44//18 10//18
f 27//19 43//19 44//19
f 25//20 42//20 43//20
f 23//21 41//21 42//21
f 21//22 40//22 41//22
f 19//23 39//23 40//23
f 17//24 38//24 39//24
f 37//25 38//25 17//25
f 36//26 37//26 15//26
f 35//27 36//27 13//27
f 45//28 35//28 11//28
f 34//29 45//29 9//29
f 33//30 34//30 7//30
f 3//35 5//35 7//35
f 7//36 9//36 3//36
f 9//37 11//37 3//37
f 11//38 13//38 3//38
f 13//39 15//39 3//39
f 15//40 17//40 3//40
f 17//41 19//41 3//41
f 19//42 21//42 3//42
f 21//43 23//43 3//43
f 23//44 25//44 3//44
f 25//45 27//45 3//45
f 27//46 29//46 3//46
