# Blender v2.79 (sub 0) OBJ File: 'garfield.blend'
# www.blender.org
o ear
v 0.027522 0.388399 -0.362620
v -0.000274 0.409239 -0.320980
v -0.694018 0.388399 -0.362619
v -0.666222 0.409239 -0.320979
v -0.234341 1.026893 -0.362620
v -0.247480 1.011995 -0.320980
v -0.432155 1.026894 -0.362620
v -0.419016 1.011995 -0.320980
v -0.297045 1.070636 -0.362620
v -0.301667 1.049796 -0.320980
v -0.369450 1.070636 -0.362620
v -0.364829 1.049796 -0.320980
v -0.036305 0.436253 -0.422500
v 0.027522 0.388399 -0.382894
v 0.008828 0.402415 -0.410899
v -0.694018 0.388399 -0.382894
v -0.630190 0.436253 -0.422499
v -0.675323 0.402415 -0.410899
v -0.401984 0.992684 -0.422499
v -0.432155 1.026894 -0.382894
v -0.423318 1.016874 -0.410899
v -0.234341 1.026893 -0.382894
v -0.264512 0.992684 -0.422500
v -0.243177 1.016874 -0.410899
v -0.358838 1.022782 -0.422500
v -0.369450 1.070636 -0.382894
v -0.366342 1.056620 -0.410899
v -0.307657 1.022782 -0.422500
v -0.297045 1.070636 -0.382894
v -0.300153 1.056620 -0.410899
v -0.240723 0.433218 -0.349774
v -0.221954 0.420872 -0.344947
v -0.425773 0.433218 -0.349773
v -0.444337 0.421662 -0.346572
v -0.320302 0.974071 -0.349774
v -0.303996 0.982167 -0.346035
v -0.346193 0.974071 -0.349774
v -0.361822 0.981810 -0.346335
v -0.329983 0.992896 -0.349774
v -0.320692 1.012171 -0.344081
v -0.336512 0.992896 -0.349774
v -0.345609 1.011788 -0.344316
v -0.535644 0.727623 -0.320980
v -0.580621 0.725660 -0.362619
v -0.580621 0.725660 -0.382894
v -0.567133 0.726980 -0.410899
v -0.509649 0.730167 -0.422499
v -0.383738 0.718903 -0.349774
v -0.400752 0.717539 -0.346447
v -0.128482 0.721845 -0.320980
v -0.065302 0.719540 -0.362620
v -0.154659 0.724833 -0.422500
v -0.078884 0.721090 -0.410899
v -0.065302 0.719540 -0.382894
v -0.281995 0.713719 -0.349774
v -0.264504 0.711976 -0.345511
vn 0.0000 1.0000 -0.0000
vn -0.0000 -1.0000 0.0000
vn -0.9479 0.3187 0.0000
vn 0.8762 0.4819 -0.0000
vn 0.5721 0.8202 0.0000
vn -0.5721 0.8202 0.0000
vn 0.0000 0.0000 1.0000
vn 0.0000 -0.8943 0.4476
vn 0.2948 -0.2220 0.9294
vn 0.5170 0.7411 0.4283
vn 0.0000 0.8943 0.4476
vn 0.0000 -0.5232 0.8522
vn -0.5170 0.7411 0.4283
vn 0.0000 0.8996 0.4367
vn 0.5422 0.2224 0.8103
vn -0.2770 -0.3971 0.8750
vn -0.6510 0.3208 0.6880
vn 0.1835 -0.0274 0.9826
vn -0.0000 -0.8943 -0.4476
vn -0.0000 -0.3243 -0.9460
vn 0.1947 0.2792 -0.9403
vn 0.5170 0.7411 -0.4283
vn 0.0000 0.3243 -0.9460
vn 0.0000 0.8943 -0.4476
vn -0.1947 0.2792 -0.9403
vn -0.5170 0.7411 -0.4283
vn 0.1549 0.0860 -0.9842
vn 0.8140 0.4477 -0.3700
vn -0.8296 0.4089 -0.3803
vn -0.2022 0.1003 -0.9742
vn -0.0000 -0.0000 -1.0000
vn 0.0000 0.3641 0.9313
vn -0.2129 -0.1810 0.9602
vn 0.0000 -0.2775 0.9607
vn 0.1721 -0.0885 0.9811
vn -0.2399 -0.0353 0.9701
vn 0.1940 -0.0285 0.9806
vn -0.1758 -0.0238 0.9841
vn 0.1867 -0.0279 0.9820
vn -0.3223 0.1074 -0.9405
vn -0.8568 0.2881 -0.4278
vn 0.1171 -0.0480 0.9920
vn -0.8568 0.2881 0.4278
vn -0.8970 0.4421 0.0000
vn -0.3391 -0.1391 0.9304
vn -0.2098 -0.0288 0.9773
vn 0.8586 0.2407 -0.4527
vn 0.3070 0.0845 -0.9480
vn 0.8507 0.3489 0.3932
vn 0.9629 0.2699 0.0000
vn 0.2770 -0.3971 0.8750
vn 0.8586 0.2407 0.4527
vn -0.2937 -0.2240 0.9293
vn -0.8507 0.3489 0.3932
vn 0.3391 -0.1391 0.9304
vn 0.3445 0.1413 -0.9281
vn 0.7973 0.4429 -0.4100
vn -0.8195 0.4065 -0.4040
vn -0.3445 0.1413 -0.9281
vn -0.0060 0.2760 0.9611
vn -0.1789 -0.0920 0.9796
vn -0.0047 -0.2812 0.9597
vn 0.2084 -0.1775 0.9618
vn -0.2722 -0.0379 0.9615
vn 0.2006 -0.0300 0.9792
vn -0.1097 -0.0450 0.9929
vn -0.2015 0.0827 -0.9760
vn -0.8677 0.2892 -0.4043
vn -0.6603 0.2708 0.7005
vn 0.8783 0.2417 -0.4126
vn 0.1541 0.0632 -0.9860
vn 0.5335 0.2934 0.7933
s off
f 29//1 11//1 9//1
f 16//2 1//2 3//2
f 16//3 44//3 45//3
f 54//4 5//4 51//4
f 22//5 9//5 5//5
f 26//6 7//6 11//6
f 33//7 31//7 55//7
f 2//8 3//8 1//8
f 42//9 8//9 38//9
f 10//10 5//10 9//10
f 10//11 11//11 12//11
f 40//12 12//12 42//12
f 12//13 7//13 8//13
f 32//14 4//14 2//14
f 2//15 51//15 50//15
f 40//16 6//16 10//16
f 43//17 7//17 44//17
f 38//18 43//18 49//18
f 16//19 15//19 14//19
f 18//20 13//20 15//20
f 28//21 24//21 23//21
f 30//22 22//22 24//22
f 25//23 30//23 28//23
f 27//24 29//24 30//24
f 25//25 21//25 27//25
f 27//26 20//26 26//26
f 52//27 24//27 53//27
f 53//28 22//28 54//28
f 20//29 46//29 45//29
f 21//30 47//30 46//30
f 47//31 52//31 17//31
f 33//32 32//32 31//32
f 39//33 36//33 40//33
f 39//34 42//34 41//34
f 41//35 38//35 37//35
f 31//36 56//36 55//36
f 37//37 49//37 48//37
f 32//38 50//38 56//38
f 33//39 49//39 34//39
f 46//40 17//40 18//40
f 45//41 18//41 16//41
f 34//42 43//42 4//42
f 4//43 44//43 3//43
f 45//44 7//44 20//44
f 36//45 50//45 6//45
f 35//46 56//46 36//46
f 15//47 54//47 14//47
f 13//48 53//48 15//48
f 50//49 5//49 6//49
f 14//50 51//50 1//50
f 29//1 26//1 11//1
f 16//2 14//2 1//2
f 16//3 3//3 44//3
f 54//4 22//4 5//4
f 22//5 29//5 9//5
f 26//6 20//6 7//6
f 55//7 35//7 48//7
f 35//7 39//7 37//7
f 48//7 35//7 37//7
f 39//7 41//7 37//7
f 48//7 33//7 55//7
f 2//8 4//8 3//8
f 42//51 12//51 8//51
f 10//10 6//10 5//10
f 10//11 9//11 11//11
f 40//12 10//12 12//12
f 12//13 11//13 7//13
f 32//14 34//14 4//14
f 2//52 1//52 51//52
f 40//53 36//53 6//53
f 43//54 8//54 7//54
f 38//55 8//55 43//55
f 16//19 18//19 15//19
f 18//20 17//20 13//20
f 28//21 30//21 24//21
f 30//22 29//22 22//22
f 25//23 27//23 30//23
f 27//24 26//24 29//24
f 25//25 19//25 21//25
f 27//26 21//26 20//26
f 52//56 23//56 24//56
f 53//57 24//57 22//57
f 20//58 21//58 46//58
f 21//59 19//59 47//59
f 47//31 19//31 23//31
f 19//31 25//31 23//31
f 25//31 28//31 23//31
f 23//31 52//31 47//31
f 52//31 13//31 17//31
f 33//60 34//60 32//60
f 39//61 35//61 36//61
f 39//62 40//62 42//62
f 41//63 42//63 38//63
f 31//64 32//64 56//64
f 37//65 38//65 49//65
f 32//66 2//66 50//66
f 33//37 48//37 49//37
f 46//67 47//67 17//67
f 45//68 46//68 18//68
f 34//18 49//18 43//18
f 4//69 43//69 44//69
f 45//44 44//44 7//44
f 36//38 56//38 50//38
f 35//36 55//36 56//36
f 15//70 53//70 54//70
f 13//71 52//71 53//71
f 50//72 51//72 5//72
f 14//50 54//50 51//50
