# Blender v2.79 (sub 0) OBJ File: 'scene.blend'
# www.blender.org
o pumpkin_stem_Cylinder.001 1 1
v -0.008962 0.439882 -0.089399
v 0.009196 0.589902 -0.045568
v 0.103759 0.426238 -0.006904
v 0.073410 0.556877 0.003500
v 0.060703 0.431450 0.126576
v 0.046494 0.569438 0.095418
v -0.078628 0.448315 0.126576
v -0.024255 0.616579 0.090329
v -0.121684 0.453526 -0.006904
v -0.044785 0.634261 0.006941
v 0.148056 0.673033 0.010703
v 0.131258 0.729964 -0.032423
v 0.141640 0.694779 0.080481
v 0.120876 0.765149 0.080481
v 0.114460 0.786895 0.010703
v 0.345624 0.704212 0.025470
v 0.351033 0.744010 -0.003710
v 0.347690 0.719413 0.072686
v 0.354377 0.768606 0.072686
v 0.356443 0.783807 0.025470
v 0.345624 0.704212 0.025470
v 0.351033 0.744010 -0.003710
v 0.347690 0.719413 0.072686
v 0.354377 0.768606 0.072686
v 0.356443 0.783807 0.025470
vt 0.179208 0.141055
vt 0.131651 0.283174
vt 0.107545 0.153267
vt 0.039568 0.185567
vt 0.426247 0.308261
vt 0.378218 0.117320
vt 0.474860 0.171946
vt 0.071393 0.298270
vt 0.143946 0.450301
vt 0.092133 0.454545
vt 0.369086 0.310113
vt 0.274602 0.121660
vt 0.255290 0.339304
vt 0.184989 0.188846
vt 0.264230 0.861669
vt 0.118829 0.816216
vt 0.157526 0.690839
vt 0.388064 0.509051
vt 0.401833 0.695423
vt 0.349245 0.527275
vt 0.313063 0.328448
vt 0.302548 0.543903
vt 0.186478 0.277121
vt 0.431610 0.487897
vt 0.390312 0.739790
vt 0.402193 0.696004
vt 0.390833 0.740168
vt 0.130018 0.672937
vt 0.097124 0.673385
vt 0.423327 0.688476
vt 0.158469 0.690432
vt 0.423330 0.689276
vt 0.451640 0.704035
vt 0.487478 0.721422
vt 0.523009 0.740751
vt 0.487324 0.722393
vt 0.451793 0.703065
vt 0.247389 0.718931
vt 0.184776 0.921795
vt 0.194454 0.470424
vt 0.431068 0.758146
vt 0.523163 0.739780
vn -0.0490 -0.4818 -0.8749
vn 0.9256 -0.1093 -0.3623
vn 0.7850 -0.5596 -0.2657
vn 0.4718 -0.5357 0.7003
vn 0.5132 0.0251 0.8579
vn -0.5718 -0.4233 0.7027
vn 0.5380 -0.7600 -0.3646
vn 0.2761 -0.3947 0.8763
vn -0.5252 0.4190 0.7407
vn -0.8846 -0.3826 -0.2666
vn -0.0390 0.2114 -0.9766
vn -0.2434 0.6215 0.7446
vn 0.0219 0.6908 0.7227
vn -0.3348 0.8990 -0.2824
vn -0.7856 0.5543 -0.2748
vn 0.0099 0.1535 -0.9881
vn 0.5196 0.2944 0.8020
vn 0.5098 -0.0693 0.8575
vn 0.1365 -0.7561 0.6401
vn 0.0463 -0.2590 0.9648
vn 0.0088 0.2954 0.9553
vn 0.5097 -0.0693 0.8575
s 1
f 1/1/1 4/2/2 3/3/3
f 4/2/2 5/4/4 3/3/3
f 6/5/5 7/6/6 5/7/4
f 6/8/5 11/9/7 13/10/8
f 8/11/9 9/12/10 7/6/6
f 9/12/10 2/13/11 1/14/1
f 3/15/3 7/16/6 9/17/10
f 14/18/12 20/19/13 15/20/14
f 10/21/15 12/22/16 2/13/11
f 2/23/11 11/9/7 4/2/2
f 8/11/9 13/24/8 14/18/12
f 10/21/15 14/18/12 15/20/14
f 17/25/17 25/26/18 22/27/18
f 13/10/8 16/28/19 18/29/20
f 15/20/14 17/25/17 12/22/16
f 13/24/8 19/30/21 14/18/12
f 11/9/7 17/31/17 16/28/19
f 22/27/18 25/26/18 24/32/18
f 19/30/21 23/33/22 24/32/18
f 16/34/19 22/35/18 21/36/18
f 20/19/13 24/32/18 25/26/18
f 18/37/20 21/36/18 23/33/22
f 1/1/1 2/23/11 4/2/2
f 4/2/2 6/8/5 5/4/4
f 6/5/5 8/11/9 7/6/6
f 6/8/5 4/2/2 11/9/7
f 8/11/9 10/21/15 9/12/10
f 9/12/10 10/21/15 2/13/11
f 9/17/10 1/38/1 3/15/3
f 3/15/3 5/39/4 7/16/6
f 14/18/12 19/30/21 20/19/13
f 10/21/15 15/20/14 12/22/16
f 2/23/11 12/40/16 11/9/7
f 8/11/9 6/5/5 13/24/8
f 10/21/15 8/11/9 14/18/12
f 17/25/17 20/19/13 25/26/18
f 13/10/8 11/9/7 16/28/19
f 15/20/14 20/19/13 17/25/17
f 13/24/8 18/37/20 19/30/21
f 11/9/7 12/40/16 17/31/17
f 23/33/22 21/41/18 24/32/18
f 21/41/18 22/27/18 24/32/18
f 19/30/21 18/37/20 23/33/22
f 16/34/19 17/42/17 22/35/18
f 20/19/13 19/30/21 24/32/18
f 18/37/20 16/34/19 21/36/18
