# Blender v2.79 (sub 0) OBJ File: ''
# www.blender.org
o Sphere_Sphere.002
v 0.000000 -0.000000 -1.000000
v -0.000000 1.000000 -0.000000
v 0.270598 0.923880 -0.270598
v 0.500000 0.707107 -0.500000
v 0.653281 0.382683 -0.653282
v 0.707107 -0.000000 -0.707107
v 0.653281 -0.382684 -0.653282
v 0.500000 -0.707107 -0.500000
v 0.270598 -0.923880 -0.270598
v 0.382683 0.923880 -0.000000
v 0.707107 0.707107 -0.000000
v 0.923879 0.382683 -0.000000
v 1.000000 -0.000000 -0.000000
v 0.923879 -0.382684 -0.000000
v 0.707107 -0.707107 -0.000000
v 0.382683 -0.923880 -0.000000
v 0.000000 -1.000000 -0.000000
v 0.270598 0.923880 0.270598
v 0.500000 0.707107 0.500000
v 0.653281 0.382683 0.653281
v 0.707107 -0.000000 0.707106
v 0.653281 -0.382684 0.653281
v 0.500000 -0.707107 0.500000
v 0.270598 -0.923880 0.270598
v 0.000000 0.923880 0.382683
v 0.000000 0.707107 0.707106
v 0.000000 0.382683 0.923879
v 0.000000 -0.000000 1.000000
v 0.000000 -0.382684 0.923879
v 0.000000 -0.707107 0.707106
v 0.000000 -0.923880 0.382683
v -0.270598 0.923880 0.270598
v -0.500000 0.707107 0.500000
v -0.653281 0.382683 0.653281
v -0.707107 -0.000000 0.707106
v -0.653281 -0.382684 0.653281
v -0.500000 -0.707107 0.500000
v -0.270598 -0.923880 0.270598
v -0.382683 0.923880 -0.000000
v -0.707107 0.707107 -0.000000
v -0.923879 0.382683 -0.000000
v -1.000000 -0.000000 -0.000000
v -0.923879 -0.382684 -0.000000
v -0.707107 -0.707107 -0.000000
v -0.382683 -0.923880 -0.000000
v -0.270598 0.923880 -0.270598
v -0.500000 0.707107 -0.500000
v -0.653281 0.382683 -0.653281
v -0.707107 -0.000000 -0.707107
v -0.653281 -0.382684 -0.653281
v -0.500000 -0.707107 -0.500000
v -0.270598 -0.923880 -0.270598
v -0.000000 0.923880 -0.382683
v -0.000000 0.707107 -0.707107
v -0.000000 0.382683 -0.923879
v -0.000000 -0.382684 -0.923879
v -0.000000 -0.707107 -0.707107
v -0.000000 -0.923880 -0.382683
vn 0.0000 -1.0000 0.0000
vn 0.0000 -0.9063 -0.4226
vn 0.2988 -0.9063 -0.2988
vn 0.0000 -0.3668 -0.9303
vn 0.5159 -0.6838 -0.5159
vn 0.0000 -0.6838 -0.7296
vn 0.0000 0.3668 -0.9303
vn 0.7071 0.0000 -0.7071
vn 0.0000 0.0000 -1.0000
vn 0.0000 0.6838 -0.7296
vn 0.2988 0.9063 -0.2988
vn 0.5159 0.6838 -0.5159
vn 0.6578 -0.3668 -0.6578
vn 0.6578 0.3668 -0.6578
vn 0.0000 0.9063 -0.4226
vn 0.0000 1.0000 0.0000
vn 0.7296 0.6838 0.0000
vn 0.7296 -0.6838 0.0000
vn 0.4226 -0.9063 0.0000
vn 0.9303 -0.3668 0.0000
vn 0.9303 0.3668 0.0000
vn 0.4226 0.9063 0.0000
vn 1.0000 0.0000 0.0000
vn 0.2988 -0.9063 0.2988
vn 0.6578 -0.3668 0.6578
vn 0.6578 0.3668 0.6578
vn 0.2988 0.9063 0.2988
vn 0.5159 -0.6838 0.5159
vn 0.7071 0.0000 0.7071
vn 0.5159 0.6838 0.5159
vn 0.0000 0.9063 0.4226
vn 0.0000 -0.9063 0.4226
vn 0.0000 -0.3668 0.9303
vn 0.0000 -0.6838 0.7296
vn 0.0000 0.0000 1.0000
vn 0.0000 0.6838 0.7296
vn 0.0000 0.3668 0.9303
vn -0.6578 -0.3668 0.6578
vn -0.5159 -0.6838 0.5159
vn -0.6578 0.3668 0.6578
vn -0.7071 0.0000 0.7071
vn -0.2988 0.9063 0.2988
vn -0.5159 0.6838 0.5159
vn -0.2988 -0.9063 0.2988
vn -0.4226 -0.9063 0.0000
vn -0.9303 -0.3668 0.0000
vn -0.9303 0.3668 0.0000
vn -0.4226 0.9063 0.0000
vn -0.7296 -0.6838 0.0000
vn -1.0000 0.0000 0.0000
vn -0.7296 0.6838 0.0000
vn -0.6578 -0.3668 -0.6578
vn -0.6578 0.3668 -0.6578
vn -0.2988 0.9063 -0.2988
vn -0.2988 -0.9063 -0.2988
vn -0.5159 -0.6838 -0.5159
vn -0.7071 0.0000 -0.7071
vn -0.5159 0.6838 -0.5159
s 1
f 17//1 58//2 9//3
f 56//4 8//5 57//6
f 55//7 6//8 1//9
f 54//10 3//11 4//12
f 57//6 9//3 58//2
f 56//4 6//8 7//13
f 55//7 4//12 5//14
f 53//15 2//16 3//11
f 3//11 11//17 4//12
f 9//3 15//18 16//19
f 6//8 14//20 7//13
f 4//12 12//21 5//14
f 3//11 2//16 10//22
f 17//1 9//3 16//19
f 7//13 15//18 8//5
f 5//14 13//23 6//8
f 15//18 24//24 16//19
f 13//23 22//25 14//20
f 11//17 20//26 12//21
f 10//22 2//16 18//27
f 17//1 16//19 24//24
f 14//20 23//28 15//18
f 12//21 21//29 13//23
f 10//22 19//30 11//17
f 18//27 2//16 25//31
f 17//1 24//24 31//32
f 23//28 29//33 30//34
f 20//26 28//35 21//29
f 18//27 26//36 19//30
f 23//28 31//32 24//24
f 21//29 29//33 22//25
f 19//30 27//37 20//26
f 30//34 36//38 37//39
f 28//35 34//40 35//41
f 26//36 32//42 33//43
f 30//34 38//44 31//32
f 28//35 36//38 29//33
f 26//36 34//40 27//37
f 25//31 2//16 32//42
f 17//1 31//32 38//44
f 37//39 45//45 38//44
f 35//41 43//46 36//38
f 33//43 41//47 34//40
f 32//42 2//16 39//48
f 17//1 38//44 45//45
f 36//38 44//49 37//39
f 35//41 41//47 42//50
f 32//42 40//51 33//43
f 42//50 50//52 43//46
f 40//51 48//53 41//47
f 39//48 2//16 46//54
f 17//1 45//45 52//55
f 44//49 50//52 51//56
f 42//50 48//53 49//57
f 39//48 47//58 40//51
f 45//45 51//56 52//55
f 17//1 52//55 58//2
f 50//52 57//6 51//56
f 48//53 1//9 49//57
f 46//54 54//10 47//58
f 51//56 58//2 52//55
f 49//57 56//4 50//52
f 47//58 55//7 48//53
f 46//54 2//16 53//15
f 56//4 7//13 8//5
f 55//7 5//14 6//8
f 54//10 53//15 3//11
f 57//6 8//5 9//3
f 56//4 1//9 6//8
f 55//7 54//10 4//12
f 3//11 10//22 11//17
f 9//3 8//5 15//18
f 6//8 13//23 14//20
f 4//12 11//17 12//21
f 7//13 14//20 15//18
f 5//14 12//21 13//23
f 15//18 23//28 24//24
f 13//23 21//29 22//25
f 11//17 19//30 20//26
f 14//20 22//25 23//28
f 12//21 20//26 21//29
f 10//22 18//27 19//30
f 23//28 22//25 29//33
f 20//26 27//37 28//35
f 18//27 25//31 26//36
f 23//28 30//34 31//32
f 21//29 28//35 29//33
f 19//30 26//36 27//37
f 30//34 29//33 36//38
f 28//35 27//37 34//40
f 26//36 25//31 32//42
f 30//34 37//39 38//44
f 28//35 35//41 36//38
f 26//36 33//43 34//40
f 37//39 44//49 45//45
f 35//41 42//50 43//46
f 33//43 40//51 41//47
f 36//38 43//46 44//49
f 35//41 34//40 41//47
f 32//42 39//48 40//51
f 42//50 49//57 50//52
f 40//51 47//58 48//53
f 44//49 43//46 50//52
f 42//50 41//47 48//53
f 39//48 46//54 47//58
f 45//45 44//49 51//56
f 50//52 56//4 57//6
f 48//53 55//7 1//9
f 46//54 53//15 54//10
f 51//56 57//6 58//2
f 49//57 1//9 56//4
f 47//58 54//10 55//7
